<svg id="Layer_1" data-name="Layer 1" xmlns="http://www.w3.org/2000/svg" viewBox="0 0 63.75 97.99"><defs><style>.cls-1{fill:#ff6e00;}</style></defs><title>logo_poom_naranja</title><path class="cls-1" d="M48,38.18l2.41-7.47a12.66,12.66,0,0,0,.46-5.39c-.34-2.77-1.72-6.8-6.39-10.27a15.69,15.69,0,0,0-11.6-2.9l4.3-6.09-7.41,1v-7L25.88,5.73,20.49,1V7l-6.54-.4L18.53,12l-5.89,3.92,7.36.65-2.62,7.36,7.19-4.74,2,8.13,2.31-7.15L36,23.38l-3.3-6.24A11.08,11.08,0,0,1,41.58,19s6,4.67,3.68,11.8l-1.73,5.37a31.87,31.87,0,1,0,4.5,2ZM32.75,83.59A17.58,17.58,0,1,1,50.33,66v0A17.6,17.6,0,0,1,32.75,83.59Z" transform="translate(-1 -0.06)"/></svg>